# xmcd
#
# Track frame offsets: 
#        150
#        13512
#        26464
#        38114
#        50529
#        65447
#        77953
#        90502
#        104148
#        118537
#        131409
#        145077
#        158855
#        173425
#        187081
#        202251
#        217015
#        231392
#        243907
#        257020
#        270878
#        282856
#        298582
#        311728
#        325345
#
# Disc length: 4507 seconds
#
# Revision: 0
# Processed by: cddbd v1.5.2PL0 Copyright (c) Steve Scherf et al.
# Submitted via: ExactAudioCopy v1.0b3
#
DISCID=6e119919
DTITLE=Various Artist - Compilation The OKeh Blues Story cd2
DYEAR=2013
DGENRE=Blues
TTITLE0=Mississippi John Hurt - Stack O Lee Blues
TTITLE1=Big Bill Broonzy - When I Been Drinking
TTITLE2=Brownie McGhee - Double Trouble
TTITLE3=Berth Chippie HIll - Pratt City Blues
TTITLE4=Mississippi Bracey - You Scolded Me And Drove Me From Your Doo
TTITLE4=r
TTITLE5=Blind Boy Fuller - When You Are Gone
TTITLE6=Memphis Minnie - Me and My Chauffer
TTITLE7=W.C. Handy - St. Louis Blues
TTITLE8=Birmingham Jug Band - Giving It Away
TTITLE9=Dora Carr - Cow Cow Blues
TTITLE10=Rosetta Crawford - Lonesome Woman Blues
TTITLE11=Esther Bigeou - Panama Limited Blues
TTITLE12=Stovepipe and David Crockett - A Woman Get's Tired Of One Man A
TTITLE12=ll The Time
TTITLE13=Blind Willie Dunn's Gin Bottle Four - Blue Blood Blues
TTITLE14=Blues Birdhead - Mean Low Blues
TTITLE15=Sara Martin - Achin' Hearted Blues
TTITLE16=Ed Macon and Tampa Joe - Tickle Britches
TTITLE17=Gladys Bentley - Worried Blues
TTITLE18=Ants In My Pants - Bo Carter
TTITLE19=Ada Brown - Evil Mama Blues
TTITLE20=Little Buddy Doyle and Big Walter Horton - Hard Scufflin' Blues
TTITLE21=Carrie Edwards - Fattenning Frogs For Snakes
TTITLE22=Sloppy Henry - Canned Heat Blues
TTITLE23=Margaret Johnson - If I Let You Get Away With It Once You'll 
TTITLE23=Do It All The Time
TTITLE24=Bukka White - Parchman Farm Blues
EXTD=
EXTT0=
EXTT1=
EXTT2=
EXTT3=
EXTT4=
EXTT5=
EXTT6=
EXTT7=
EXTT8=
EXTT9=
EXTT10=
EXTT11=
EXTT12=
EXTT13=
EXTT14=
EXTT15=
EXTT16=
EXTT17=
EXTT18=
EXTT19=
EXTT20=
EXTT21=
EXTT22=
EXTT23=
EXTT24=
PLAYORDER=
